#!OML:ASF C:\Vicon Data\Big\jianyuan-13\jianyuan\Session 1\Capture.male.ASF
:FULLY-SPECIFIED
:DEGREES
28
root -7.972331 17.818637 -22.117660 9.190040 11.829609 1.566311
lowerback -11.508549 -1.505239 -1.912511 
upperback 2.028528 -1.744665 0.165314 
thorax 8.702495 -0.945878 0.925702 
lowerneck -7.677087 -1.253500 3.361086 
upperneck -2.050308 -1.930832 -3.167088 
head 0.591376 -1.026660 -1.612296 
rclavicle 0.000000 0.000000 
rhumerus -41.445077 -19.830512 -77.123586 
rradius 28.214959 
rwrist 31.483853 
rhand -17.583032 -15.476204 
rfingers 0.000000 
rthumb 8.672748 -45.278042 
lclavicle 0.000000 0.000000 
lhumerus -30.515456 22.463129 81.631513 
lradius 28.260102 
lwrist -49.503887 
lhand -19.498792 1.126401 
lfingers 0.000000 
lthumb 6.823670 30.996421 
rfemur -26.171941 1.681621 19.861666 
rtibia 25.360425 
rfoot -9.533010 -7.938935 
rtoes -30.306939 
lfemur 4.432712 -3.220897 -22.104442 
ltibia 22.126025 
lfoot -7.880489 6.608970 
ltoes -42.990733 
29
root -7.988666 17.823946 -22.016308 9.239004 11.787049 1.478244
lowerback -11.662640 -1.471325 -1.781879 
upperback 1.969762 -1.716434 0.174581 
thorax 8.722766 -0.925395 0.864654 
lowerneck -7.739381 -1.276608 3.447942 
upperneck -1.854602 -1.966735 -3.249286 
head 0.661626 -1.046351 -1.658190 
rclavicle 0.000000 0.000000 
rhumerus -41.271489 -19.555153 -77.345643 
rradius 28.222414 
rwrist 30.983516 
rhand -17.722924 -15.391242 
rfingers 0.000000 
rthumb 8.537716 -45.198593 
lclavicle 0.000000 0.000000 
lhumerus -31.055200 23.432682 80.880732 
lradius 27.839707 
lwrist -50.401671 
lhand -19.617355 0.929050 
lfingers 0.000000 
lthumb 6.709212 30.802740 
rfemur -25.865642 1.487666 20.153738 
rtibia 25.338709 
rfoot -9.879949 -7.605842 
rtoes -30.468650 
lfemur 3.735696 -2.648128 -21.765929 
ltibia 23.703726 
lfoot -7.194784 6.520244 
ltoes -42.818771 
30
root -8.006824 17.829137 -21.918217 9.249268 11.811595 1.422694
lowerback -11.803040 -1.486780 -1.759500 
upperback 1.958101 -1.744939 0.258939 
thorax 8.794316 -0.940620 0.933375 
lowerneck -7.738410 -1.278652 3.127236 
upperneck -1.781126 -1.942062 -3.107153 
head 0.688111 -1.030386 -1.556015 
rclavicle 0.000000 0.000000 
rhumerus -41.061556 -19.333132 -77.382035 
rradius 28.206241 
rwrist 31.179334 
rhand -17.644315 -15.376080 
rfingers 0.000000 
rthumb 8.613629 -45.180353 
lclavicle 0.000000 0.000000 
lhumerus -31.559922 23.709087 80.513146 
lradius 27.741317 
lwrist -50.564822 
lhand -19.630982 0.975422 
lfingers 0.000000 
lthumb 6.696085 30.849506 
rfemur -25.483317 1.541136 20.350666 
rtibia 25.286247 
rfoot -10.296493 -7.586811 
rtoes -30.599905 
lfemur 3.030104 -2.047282 -21.424024 
ltibia 25.360224 
lfoot -6.468666 6.333657 
ltoes -43.052096 
31
root -8.025430 17.832080 -21.824759 9.197905 11.762654 1.264825
lowerback -11.866075 -1.458660 -1.655432 
upperback 1.948359 -1.730023 0.353761 
thorax 8.819412 -0.930888 0.977441 
lowerneck -7.803476 -1.309865 3.111709 
upperneck -1.641303 -1.980690 -3.209677 
head 0.741788 -1.051513 -1.589882 
rclavicle 0.000000 0.000000 
rhumerus -40.855927 -19.162531 -77.463573 
rradius 28.266616 
rwrist 30.741969 
rhand -17.737939 -15.237185 
rfingers 0.000000 
rthumb 8.523217 -45.045130 
lclavicle 0.000000 0.000000 
lhumerus -32.083517 24.423918 79.979759 
lradius 27.551954 
lwrist -51.204791 
lhand -19.661681 0.912662 
lfingers 0.000000 
lthumb 6.666423 30.787722 
rfemur -25.078404 1.531117 20.681719 
rtibia 25.238932 
rfoot -10.656478 -7.427533 
rtoes -30.779966 
lfemur 2.330361 -1.263596 -20.965595 
ltibia 27.063015 
lfoot -5.687381 6.219247 
ltoes -42.398853 
32
root -8.042157 17.833888 -21.732419 9.217483 11.760664 1.276911
lowerback -12.006395 -1.391749 -1.627118 
upperback 1.936929 -1.637774 0.299679 
thorax 8.882420 -0.883318 0.918912 
lowerneck -7.740289 -1.345634 3.079578 
upperneck -1.602247 -2.024317 -3.080341 
head 0.742669 -1.070694 -1.543365 
rclavicle 0.000000 0.000000 
rhumerus -40.711946 -19.039735 -77.679855 
rradius 28.271102 
rwrist 30.811430 
rhand -17.690169 -15.395483 
rfingers 0.000000 
rthumb 8.569333 -45.201608 
lclavicle 0.000000 0.000000 
lhumerus -32.527458 24.737903 79.405822 
lradius 27.341036 
lwrist -51.619734 
lhand -19.667748 0.825586 
lfingers 0.000000 
lthumb 6.660530 30.700823 
rfemur -24.733224 1.332384 20.852119 
rtibia 25.200821 
rfoot -10.967444 -7.161307 
rtoes -31.164935 
lfemur 1.561653 -0.610738 -20.701676 
ltibia 28.785467 
lfoot -4.832739 6.179360 
ltoes -42.027358 
33
root -8.058020 17.836116 -21.647494 9.108848 11.803096 1.101342
lowerback -11.989489 -1.370434 -1.473721 
upperback 1.947293 -1.640657 0.389802 
thorax 8.882050 -0.879624 0.928236 
lowerneck -7.851944 -1.398135 3.070112 
upperneck -1.417064 -2.092088 -3.169257 
head 0.817841 -1.106599 -1.576127 
rclavicle 0.000000 0.000000 
rhumerus -40.466054 -18.507286 -77.995197 
rradius 28.429990 
rwrist 30.574122 
rhand -17.677288 -15.723303 
rfingers 0.000000 
rthumb 8.581770 -45.528853 
lclavicle 0.000000 0.000000 
lhumerus -32.950536 24.950467 79.109887 
lradius 27.286806 
lwrist -51.679878 
lhand -19.604604 0.876224 
lfingers 0.000000 
lthumb 6.721488 30.749547 
rfemur -24.315476 1.187505 21.203479 
rtibia 25.189316 
rfoot -11.292876 -6.922410 
rtoes -31.339690 
lfemur 0.846185 0.010643 -20.223356 
ltibia 30.515643 
lfoot -3.957713 6.174844 
ltoes -41.417506 
34
root -8.073905 17.835742 -21.561583 9.025160 11.811371 1.081543
lowerback -12.014519 -1.335289 -1.414228 
upperback 1.982982 -1.599642 0.358984 
thorax 8.931354 -0.856227 0.868883 
lowerneck -7.915961 -1.424009 3.072092 
upperneck -1.309816 -2.126768 -3.133528 
head 0.861887 -1.123733 -1.568330 
rclavicle 0.000000 0.000000 
rhumerus -40.256713 -18.469234 -78.169172 
rradius 28.458996 
rwrist 30.703924 
rhand -17.569525 -15.821246 
rfingers 0.000000 
rthumb 8.685742 -45.622550 
lclavicle 0.000000 0.000000 
lhumerus -33.348716 25.550525 78.479448 
lradius 27.085712 
lwrist -52.141676 
lhand -19.544321 0.760112 
lfingers 0.000000 
lthumb 6.779728 30.631581 
rfemur -23.923650 1.083938 21.372017 
rtibia 25.225382 
rfoot -11.645546 -6.706276 
rtoes -31.376444 
lfemur 0.134077 0.604087 -19.926732 
ltibia 32.241430 
lfoot -3.155783 6.185064 
ltoes -40.315770 
35
root -8.089476 17.833753 -21.479575 8.990546 11.848208 1.070742
lowerback -12.032935 -1.304076 -1.433970 
upperback 1.976859 -1.557561 0.391832 
thorax 8.935690 -0.837861 0.923079 
lowerneck -7.968109 -1.522151 3.144810 
upperneck -1.138871 -2.259518 -3.334840 
head 0.919120 -1.193937 -1.652959 
rclavicle 0.000000 0.000000 
rhumerus -40.052029 -18.145402 -78.350784 
rradius 28.467456 
rwrist 30.596702 
rhand -17.691315 -15.805820 
rfingers 0.000000 
rthumb 8.568254 -45.611929 
lclavicle 0.000000 0.000000 
lhumerus -33.745879 25.907657 78.096881 
lradius 26.959588 
lwrist -52.292287 
lhand -19.501930 0.786750 
lfingers 0.000000 
lthumb 6.820615 30.656886 
rfemur -23.611101 1.216238 21.483369 
rtibia 25.322996 
rfoot -12.056806 -6.709068 
rtoes -31.243699 
lfemur -0.667602 1.321960 -19.603275 
ltibia 33.923171 
lfoot -2.018248 6.150159 
ltoes -40.435193 
36
root -8.105239 17.829793 -21.399288 8.934381 11.935584 0.946138
lowerback -12.109820 -1.300082 -1.330258 
upperback 1.996868 -1.574496 0.477466 
thorax 9.002028 -0.843550 0.950940 
lowerneck -7.975748 -1.513976 2.879184 
upperneck -1.070664 -2.225889 -3.183141 
head 0.945987 -1.173978 -1.557369 
rclavicle 0.000000 0.000000 
rhumerus -39.778819 -17.741915 -78.544325 
rradius 28.493795 
rwrist 30.437227 
rhand -17.820786 -15.814836 
rfingers 0.000000 
rthumb 8.443333 -45.626098 
lclavicle 0.000000 0.000000 
lhumerus -34.114029 26.051790 77.839829 
lradius 26.912780 
lwrist -52.025398 
lhand -19.341803 0.838090 
lfingers 0.000000 
lthumb 6.975176 30.703161 
rfemur -23.347232 1.043724 21.775929 
rtibia 25.464627 
rfoot -12.382815 -6.485517 
rtoes -31.117245 
lfemur -1.475133 1.905868 -19.184369 
ltibia 35.569697 
lfoot -1.015132 6.221036 
ltoes -40.148426 
37
root -8.120425 17.824544 -21.324224 8.872891 11.986962 0.905033
lowerback -12.042216 -1.184019 -1.245152 
upperback 1.977284 -1.423703 0.367709 
thorax 8.931600 -0.762724 0.816972 
lowerneck -7.980419 -1.541352 3.083983 
upperneck -0.962624 -2.280677 -3.046321 
head 0.978730 -1.199157 -1.552523 
rclavicle 0.000000 0.000000 
rhumerus -39.654556 -18.107511 -78.624922 
rradius 28.399612 
rwrist 31.065893 
rhand -17.623128 -15.749299 
rfingers 0.000000 
rthumb 8.634024 -45.552752 
lclavicle 0.000000 0.000000 
lhumerus -34.480664 26.574395 77.077814 
lradius 26.575146 
lwrist -53.050765 
lhand -19.544188 0.708195 
lfingers 0.000000 
lthumb 6.779879 30.579593 
rfemur -23.098663 0.892269 21.950943 
rtibia 25.639746 
rfoot -12.709523 -6.201395 
rtoes -30.595331 
lfemur -2.273747 2.360506 -18.903460 
ltibia 37.193834 
lfoot -0.090076 6.450133 
ltoes -39.249383 
38
root -8.135818 17.817799 -21.246445 8.817565 12.037642 0.769059
lowerback -12.110073 -1.126923 -1.112346 
upperback 2.015326 -1.369838 0.400670 
thorax 9.008272 -0.731212 0.786277 
lowerneck -8.148514 -1.613462 3.173394 
upperneck -0.768061 -2.383838 -3.167593 
head 1.065117 -1.253980 -1.616051 
rclavicle 0.000000 0.000000 
rhumerus -39.392074 -17.723408 -78.942204 
rradius 28.492805 
rwrist 30.756794 
rhand -17.751670 -15.719700 
rfingers 0.000000 
rthumb 8.509997 -45.528225 
lclavicle 0.000000 0.000000 
lhumerus -34.795056 26.962065 76.617628 
lradius 26.419304 
lwrist -53.461661 
lhand -19.578962 0.689772 
lfingers 0.000000 
lthumb 6.746252 30.562258 
rfemur -22.843829 0.894353 22.216332 
rtibia 25.794159 
rfoot -13.079808 -6.100060 
rtoes -30.291684 
lfemur -3.103048 2.928571 -18.497508 
ltibia 38.842519 
lfoot 0.780543 6.743466 
ltoes -38.493514 
39
root -8.150001 17.809205 -21.171931 8.758984 12.097744 0.621422
lowerback -12.115555 -1.120894 -0.954136 
upperback 1.982154 -1.393077 0.481292 
thorax 8.973936 -0.736354 0.778739 
lowerneck -8.110287 -1.686773 2.937528 
upperneck -0.581216 -2.457525 -3.060221 
head 1.118275 -1.288161 -1.544302 
rclavicle 0.000000 0.000000 
rhumerus -39.153328 -17.225527 -79.154847 
rradius 28.565084 
rwrist 30.868382 
rhand -17.540060 -15.990225 
rfingers 0.000000 
rthumb 8.714179 -45.790304 
lclavicle 0.000000 0.000000 
lhumerus -35.261795 26.840007 76.445406 
lradius 26.525804 
lwrist -53.044666 
lhand -19.478890 0.824649 
lfingers 0.000000 
lthumb 6.842894 30.694069 
rfemur -22.598295 0.873612 22.491766 
rtibia 25.928657 
rfoot -13.403825 -5.957748 
rtoes -29.963424 
lfemur -3.960248 3.449843 -18.081287 
ltibia 40.516548 
lfoot 1.487416 7.077366 
ltoes -36.723184 
